<svg xmlns="http://www.w3.org/2000/svg" width="240" height="180" viewBox="0 0 240 180">
  <rect x="24" y="52" width="192" height="96" rx="16" fill="#fff" fill-opacity=".12" stroke="#fff" stroke-opacity=".9" stroke-width="5"/>
  <g fill="#fff" fill-opacity=".85">
    <rect x="44" y="70" width="18" height="16" rx="4"/><rect x="70" y="70" width="18" height="16" rx="4"/>
    <rect x="96" y="70" width="18" height="16" rx="4"/><rect x="122" y="70" width="18" height="16" rx="4"/>
    <rect x="148" y="70" width="18" height="16" rx="4"/><rect x="174" y="70" width="22" height="16" rx="4"/>
    <rect x="44" y="94" width="26" height="16" rx="4"/><rect x="78" y="94" width="18" height="16" rx="4"/>
    <rect x="104" y="94" width="18" height="16" rx="4"/><rect x="130" y="94" width="18" height="16" rx="4"/>
    <rect x="156" y="94" width="40" height="16" rx="4"/>
    <rect x="44" y="118" width="18" height="14" rx="4"/><rect x="178" y="118" width="18" height="14" rx="4"/>
  </g>
  <rect x="70" y="118" width="100" height="14" rx="4" fill="#c9c1ff"/>
</svg>
